<svg version="1.1" id="Слой_1" xmlns="http://www.w3.org/2000/svg" x="0" y="0" viewBox="0 0 1125 2436" style="enable-background:new 0 0 1125 2436" xml:space="preserve"><style>.st0,.st1{stroke-linecap:round;stroke-linejoin:round}.st0{fill:none;stroke:#000;stroke-width:4}.st1{stroke-width:3}.st1,.st2,.st4,.st8{fill:none;stroke:#000}.st2{stroke-width:4;stroke-miterlimit:10}.st4,.st8{stroke-width:7;stroke-linecap:round;stroke-linejoin:round}.st8{stroke-width:4;stroke-miterlimit:10}</style><g id="Слой_4"><path class="st0" d="M250 534c-196 202 5 354 131 330 145-27 109-186 14-174-167 22-199 524 301 389m25 1112v-25c0-10-9-18-19-18h-60c-10 0-18 8-18 18v25c0 10 8 18 18 18 0 0 0 0 0 0h54l20 24-5-26c6-3 10-9 10-16z"/><circle class="st0" cx="647" cy="2176.4" r="5.5"/><circle class="st0" cx="671.9" cy="2176.4" r="5.5"/><circle class="st0" cx="696.8" cy="2176.4" r="5.5"/><path class="st0" d="M1043 1201h0c7-2 13 2 15 8 0 0 0 0 0 0l21 75c2 6-1 13-8 14 0 0 0 0 0 0h0c-6 2-13-1-14-8l-22-74c-2-7 2-13 8-15zm3-3 4-22-10 6-12-1-6 11 16 11"/><path class="st0" d="m1066 1300-5 15 10 4 4-6h12l5-8-14-11"/><path d="m1040 1233 18-24 5 20-17 24zm13 41 17-24 5 20-17 24z"/><path class="st0" d="M123 1971h0c4 5 3 12-2 16v1l-62 46c-5 4-12 3-16-2 0 0 0 0 0 0h0c-4-5-3-13 2-17 0 0 0 0 0 0l62-46c5-4 13-3 16 2zm4 2 23-5-11-7-3-12-12-1-5 18"/><path class="st0" d="m39 2027-16 1v12l7 1 4 11 10 1 5-16"/><path d="m92 1980 29 7-17 13-28-8zm-33 26 29 8-17 12-29-8z"/><circle class="st0" cx="356.8" cy="180.5" r="34.3"/><path class="st1" d="M359 215a30 30 0 0 0 11-54l-8-4c-6-1-12 0-17 4-5 5-7 10-7 17 0 3 1 6 3 8 3 5 11 5 15 2 2-2 4-4 4-7 0-2-1-5-3-6"/><path class="st0" d="m401 226-18-20-4 3 18 20m11 12 22 25h4v-4h0l-22-24m-16-7s-18-6-19 4 23 33 26 21 2-14 2-14m0-17s-4-20 6-19 29 28 17 29h-15"/><path class="st0" d="m399 229 2-2c2-2 5-2 6 0l4 5c2 1 1 4 0 6l-3 2c-2 2-5 1-6 0l-4-5c-1-2-1-5 1-6z"/><ellipse transform="rotate(-32 58 120)" class="st0" cx="58.4" cy="120" rx="29.5" ry="8.1"/><path class="st0" d="M51 103c-12 7-43 28-43 52s13 39 23 21 17 0 26-8 6-22 19-23 26 6 33-16 6-13 16-18-16-47-74-8z"/><path class="st0" d="M26 182s12 28 62-3c65-39 35-67 35-67"/><path class="st1" d="m82 120 10-2c1 0 3 1 3 3 0 0 0 0 0 0h0c0 1-1 3-3 3l-9 1c-2 0-3-1-3-2 0 0 0 0 0 0h0c-1-2 1-3 2-3zm-35 23 10-1c2 0 3 1 3 2h0c1 2-1 3-2 4l-10 1c-1 0-3-1-3-3h0l2-3s0 0 0 0zm-24 16 4-9c0-2 2-3 3-2 0 0 0 0 0 0h0c2 1 2 2 2 4l-4 9c-1 1-2 2-4 1h0c-1 0-2-2-1-3zM7 92l3-9 4-2s0 0 0 0h0l2 4s0 0 0 0l-4 9c-1 2-3 2-4 2h0c-1-1-2-3-1-4 0 0 0 0 0 0zm84 11 3-10c1-1 3-2 4-1h0l2 4-4 9c-1 1-3 2-4 1h0c-1 0-2-2-1-3z"/><circle class="st1" cx="24" cy="138" r="3.9"/><circle class="st1" cx="71" cy="136.2" r="3.5"/><circle class="st1" cx="40.7" cy="98.4" r="3.5"/><circle class="st1" cx="81.1" cy="95.6" r="3"/><ellipse transform="rotate(-76 736 1521)" class="st0" cx="736.4" cy="1521.2" rx="8.1" ry="29.5"/><path class="st0" d="M744 1504c-14-3-50-12-68 5s-19 36 1 31 12 12 24 14 20-11 29-3 14 23 35 13 13-4 24 0 22-45-45-60z"/><path class="st0" d="M669 1541s-12 28 45 43c73 20 73-21 73-21"/><path class="st1" d="m753 1538 8 6v4h0c-1 1-3 2-4 1l-7-7c-2-1-2-2-1-3h0c1-2 3-2 4-1 0 0 0 0 0 0zm-41-9 8 6v4h0c-1 2-3 2-4 1l-7-6c-2-1-2-3-1-4h0c1-1 3-2 4-1 0 0 0 0 0 0zm-28-7 9-3c2-1 3 0 4 1h0c0 2 0 3-2 4 0 0 0 0 0 0l-9 3c-1 1-3 0-4-1 0 0 0 0 0 0h0l2-4zm37-58 9-3c2-1 3 0 4 2h0c0 1 0 3-2 3l-9 4-4-2s0 0 0 0h0c0-1 0-3 2-4 0 0 0 0 0 0zm50 69 9-4c2 0 4 0 4 2 0 0 0 0 0 0h0c1 1 0 3-1 3 0 0 0 0 0 0l-10 4-3-2h0c-1-1 0-3 1-3 0 0 0 0 0 0z"/><circle class="st1" cx="699.7" cy="1508.8" r="3.9"/><circle class="st1" cx="733.5" cy="1541.6" r="3.5"/><circle class="st1" cx="739.9" cy="1493.6" r="3.5"/><circle class="st1" cx="769.8" cy="1520.8" r="3"/><ellipse transform="rotate(-60 195 269)" class="st0" cx="194.9" cy="268.8" rx="11.5" ry="48.5"/><path class="st0" d="M237 293c-15 26-47 39-70 26s-30-47-15-73"/><path class="st0" d="M234 299c29 8-12 45-30 23"/><path class="st0" d="M229 305c18 4-6 25-16 13"/><ellipse transform="rotate(-60 170 279)" cx="169.9" cy="279.2" rx="5.7" ry="3.6"/><ellipse transform="rotate(-60 194 293)" cx="193.6" cy="292.5" rx="5.7" ry="3.6"/><path class="st1" d="M165 293s1 15 18 11"/><path d="M176 269s29 22 41 1c10-19-8-34 1-37 11-4 5 20 14 21s12-23 19-13c8 12-15 19-7 27 5 6 15 0 16 7 1 14-20 3-25 20a113 113 0 0 1-59-25z"/><circle cx="269.9" cy="274.6" r="5"/><path class="st0" d="M188 325c2 3 2 5 1 7-3 5-16 4-28-4s-21-17-18-23c1-2 3-3 7-3"/><path class="st1" d="M219 224c-7-19-26-19-33-18m-30-17c-3 10 9 16 13 17m72 4c2 7 1 16-2 22m0-29c-2-6-7-13-10-16m-3-6c-17-44 17-58 31-54 21 5 13 26 0 23m4-36c8-3 15-9 20-17"/><circle cx="178.1" cy="206" r="2.2"/><path class="st0" d="m213 94-9-2-2 1-6 5h-3l-1-1-1-8-1-2-8-4v-3s0 0 0 0l1-1 8-4 1-1 2-9 2-2 1 1 6 7h2l8-1c2 0 3 1 3 2v1l-5 8v2l4 8-1 3h-1zm566 771-14-3-4 1-10 10h-5s0 0 0 0l-1-3-2-14c0-1 0-2-2-3l-12-6c-2-1-2-4-1-5l1-2 13-6c2 0 2-1 3-2l2-14c1-2 3-4 5-3l2 1 9 11 3 1 14-2c2 0 4 1 5 3l-1 3-7 12v3l6 13c1 2 0 4-2 5h-2 0zM472 2101l-14-3h-3l-11 10c-1 2-4 2-5 0l-1-2-2-14-1-3-13-7c-2-1-2-3-1-5l1-1 14-6 2-3 2-14c1-2 3-3 5-3l2 1 9 11 3 1 15-2c2 0 3 2 4 4l-1 2-7 12v4l6 13c1 2 0 4-2 5h-2 0z"/><path d="m1125 2183-2-1-5 1-11 10h-2v-1l-2-14c0-2-1-4-3-5l-12-6-1-1v-2l1-1 13-5c2-1 3-2 3-4l3-14 2-2 1 1 9 11c1 1 3 2 5 1h1v-4l-1 1-2-1-9-11c-2-2-6-2-8 0l-2 3-3 14-1 1-13 6c-3 1-4 5-3 7l3 3 12 7 1 1 1 15a6 6 0 0 0 10 3l10-10h2l3 1v-4z"/><path class="st0" d="m59 844-14-3h-4l-10 10c-2 2-4 1-5 0l-1-2-2-14c0-2-1-3-2-3l-12-7c-2-1-2-3-1-5l1-2 13-5 2-3 3-14c1-2 2-3 4-3l3 1 9 11 3 1 14-2c2 0 4 2 5 4l-1 2-7 12v4l6 13c0 1 0 4-2 4l-2 1h0zm397 126-14-3-4 1-10 10c-2 1-4 1-6-1v-2l-2-14-2-3-12-7c-2-1-3-3-2-5l2-1 13-6 2-3 3-14c0-2 2-3 4-3l2 1 10 11 3 1 14-1c2-1 4 1 4 3v2l-7 12-1 4 6 13c1 2 0 4-1 5h-2 0zm522-631-9-2-2 1-7 6h-3l-1-2-1-9-1-1-8-5-1-3 1-1 9-4 1-1 2-9c0-2 1-3 3-2h1l6 7 2 1 9-1 3 2-1 1-4 8v3l3 8c1 1 0 2-1 3h-1zm-637-46-9-2-2 1-7 6h-3l-1-2-1-9-1-1-8-5a2 2 0 0 1 0-4l9-4 1-1 2-9 2-2 2 1 6 7h2l9-1 2 2v2l-5 7v3l4 8-1 3h-1zm725 2100-9-2-2 1-7 6h-3l-1-2v-9l-2-2-8-4a2 2 0 0 1 1-4l8-4 1-1 2-9c0-1 1-2 3-2 0 0 0 0 0 0l1 1 6 6 2 1 9-1 2 2v2l-5 7v3l4 8c1 1 0 2-1 3h-1 0zM67 271l-4-7-2-1-9-1c-1 0-2-1-2-3l1-1 6-6v-2l-2-9 2-2h1l8 4 2-1 8-4 3 1v1l-1 9 1 2 6 6v3h1-2l-8 2-2 1-3 8c-1 1-2 2-3 1l-1-1zm541 2112c4-13 16-23 30-24 9 0 83 18 90 20 3 1 5 4 5 7h0c-1 4-5 6-8 5-19-5-79-20-86-20-9 1-16 8-18 17-4 14 10 20 14 22 3 1 5 4 4 7h0c-1 3-5 5-9 4-6-3-29-13-22-38z"/><path d="m710 2375 7 13-14-3-8-13s14 4 15 3zm-31-7 8 13-15-4-8-13 15 4zm-29-6 8 13-15-4-6-11 13 2zm-35 8 17 3-9 9-14-1 6-11zm4 24-11 7 5 7c1 3 4 5 6 6l4-12-4-8zm13 15-2 12s8 1 9-4-7-8-7-8z"/><path class="st0" d="M324 27c-6 14-3 30 8 40 7 6 81 42 87 45 4 2 8 1 10-3h0c1-3 0-7-4-8-18-9-78-38-83-43-8-7-8-18-4-26 7-14 22-10 27-8 3 1 6 0 8-3h0c2-4-1-8-5-10-7-2-33-9-44 16z"/><path d="m402 103 15-5-14-7-16 5 15 7zm-30-15 15-5-15-7-15 5 15 7zm-28-15 15-5-14-7-13 5 12 7zm-23-30 16 9-2-14-12-8-2 13zm20-17-5-13c5-3 12-4 18-4l-5 13-8 4zm21-3 6-11s7 4 5 9-11 2-11 2z"/><path class="st0" d="M344 1147c12 10 18 28 12 45-4 10-61 84-66 90-2 4-7 5-10 2h0c-4-2-4-7-1-11 14-18 60-77 63-86 4-10-1-22-10-28-14-11-27 1-31 5-3 3-7 4-10 2h0c-4-3-4-9 0-12 6-6 29-26 53-7z"/><path d="m304 1264-19 2 11-14 19-2s-12 13-11 14zm23-31-18 3 11-15 18-2-11 14zm20-29-18 2 11-14 16-1-9 13zm8-43-11 18-6-15 8-15 9 12zm-28-6-3-16c-7-1-14 1-20 5l12 11h11zm-24 7-12-8s-5 8 0 12 12-4 12-4z"/><circle class="st0" cx="617.1" cy="68.6" r="8.6"/><circle class="st0" cx="316" cy="113.3" r="6.5"/><path class="st1" d="M490 445s12 1 12 6m-8-13s14 0 14 8"/><path class="st0" d="m191 366 176-40c6-2 13 2 14 9l26 110c1 7-3 13-10 15l-176 40c-6 2-13-3-14-9l-26-111c-1-6 3-13 10-14zm285 134-175 40c-7 1-16 1-20-1l-64-31c-4-2-2-5 5-7l175-40c7-2 16-1 20 1l64 31c4 2 2 5-5 7z"/><path class="st0" d="M483 495c4 3 4 14-4 16l-175 40c-7 2-16 1-20-1l-64-31c-7-3-7-14-3-17m-15-127 159-36c6-1 11 2 13 8l20 91c2 5-2 11-8 13l-159 36c-5 1-11-2-13-8l-20-91c-1-6 2-11 8-13z"/><path class="st1" d="m241 506 163-37m-71 24 82-18m-163 37 45-11m96-12 36-8m-163 37 98-23m31 14-42 10h-4l-16-8c-1-1 0-1 1-2l42-9h5l16 8-2 1zM269 406l55-35-4 55-23-11 9-21-20 16z"/><path class="st1" d="m286 410 9 19 2-14m6 3-8 11m-24-11-20 24m27-5-16 25m47-34-13 27"/><path class="st0" d="M432 325s7-20 15-18 14 30 14 30m-58-2s-20-24-24-6"/><path class="st1" d="M412 384s-2-7 4-10c5-2 7 4 7 4m20-9s0-6 5-8 8 4 8 4m-34 21s4 8 12 4 3-12 3-12-6 0-4-1 4-3 4-1v2m2 7h9c6-2 5-8 4-11m17-8-9 6m0 4 9-1m-8 5 6 2m-61 7 10-1m2 4-8 4m10 0-4 5"/><path class="st0" d="M432 440s51 10 47 25-41 7-41 7"/><path class="st1" d="M458 463s16 1 16 9m-8-14s12 2 12 9"/><path class="st0" d="M471 453s39 6 39-10c0-18-62-15-62-15s11-10 9-22m-43 40s16 0 27-14"/><path class="st0" d="M396 402c14 11 34 15 50 9 25-10 34-36 24-59-8-18-21-21-27-22"/><path class="st0" d="M411 349s1 9 8 5c8-4 0-8 0-8s13 8 15-3c2-8-13-8-13-8s16-2 10-11c-8-10-19 8-19 8-11 3-20 11-26 22M201 470s-38 3-39 44c0 43 47 53 56 37 11-20-33-18-35-39-2-26 24-22 24-22"/><ellipse class="st0" cx="54.1" cy="335.1" rx="28.7" ry="16"/><path class="st0" d="M28 326s-12-21-18-14 5 9-1 14 7 12 0 15-3 10 4 10 14-9 14-9m53-16s10-22 16-16-5 10 2 14-6 13 1 16 4 9-3 10-15-9-15-9"/><path class="st1" d="M41 322s-8 10-2 27m27-28s11 14-1 28"/><path d="M53 331s-3-5-7 0 8 11 8 11 14-8 8-13c-5-5-9 2-9 2z"/><ellipse transform="rotate(-78 327 613)" class="st0" cx="326.5" cy="613.1" rx="16" ry="28.7"/><path class="st0" d="M302 599s-7-23-14-18 3 11-4 14 4 13-3 15-5 8 1 10 16-6 16-6m55-5s15-19 20-12-7 9-1 14-8 12-2 16 2 9-5 9-13-11-13-11"/><circle cx="319.5" cy="604.9" r="3.2"/><circle cx="336.4" cy="608.8" r="3.2"/><path d="m324 616 3-2-2-1 3 4c1 1 4 0 3-2l-3-3-2-1-4 2c-2 1 0 3 2 3z"/><ellipse transform="rotate(-58 494 68)" class="st0" cx="494.1" cy="67.9" rx="16.1" ry="28.7"/><path class="st0" d="M478 49s1-24-7-22-1 11-8 11-2 14-9 13-7 7-2 11 17-1 17-1m53 15s21-13 22-4-9 6-6 12-11 8-7 14-2 10-8 7-8-15-8-15"/><path class="st1" d="M492 52s-13 4-16 22m38-9s1 17-16 23"/><path d="M497 66s0-6-6-3 1 13 1 13 16 1 14-6-9-4-9-4z"/><ellipse transform="rotate(-82 1003 797)" class="st0" cx="1002.9" cy="797.2" rx="16" ry="28.7"/><path class="st0" d="M980 785s-8-21-15-15 4 10-3 13 4 14-3 16-4 9 3 10 15-7 15-7m54-10s14-18 19-11-6 9 0 14-7 12-1 15 2 10-5 10-17-12-17-12"/><path class="st1" d="M994 781s-10 12-6 29m31-23s8 12-5 25"/><path d="M1005 795s-3-5-7-1 6 12 6 12 15-6 10-12c-4-5-9 1-9 1z"/><path class="st0" d="M546 193h-2l2 3c4 12-4 25-16 24-3 4-7 6-12 7h-6c-5 5-12 8-18 7a54 54 0 1 0 105 26 54 54 0 0 0-53-67h0z"/><circle class="st0" cx="546.2" cy="246.9" r="18.8"/><path class="st1" d="M590 237c-4-4-12-4-11-16 1-10-9-23-20-18-6 2-9 6-13 6-3 6-8 11-16 11-2 3-6 5-10 6 0 11-21 7-23 18-1 13 15 8 17 23 1 10 4 24 19 17 24-10 7 15 30 8 22-7 3-27 18-30 15-2 19-16 9-25z"/><path class="st1" d="m555 275 8-1c2-1 3 0 3 2h0l-2 2-9 1c-1 1-2 0-2-2h0l2-2zm4-55 8-1 3 2h0c0 2-1 3-2 3l-9 1-2-2h0c-1-1 0-3 2-3zm-34 49 8 3 1 3s0 0 0 0h0c-1 1-2 2-3 1h0l-8-3c-1 0-2-2-1-3 0 0 0 0 0 0h0c0-1 2-2 3-1zm45-28 4-8c0-1 1-2 3-2h0l1 4s0 0 0 0l-3 7c-1 2-2 2-3 2h0c-2-1-2-2-2-3z"/><circle transform="rotate(-45 515 244)" class="st1" cx="515" cy="243.7" r="3"/><circle class="st1" cx="582.2" cy="250.3" r="3"/><circle class="st1" cx="555" cy="213.7" r="2.6"/><circle class="st0" cx="492.6" cy="210.4" r="7.4"/><circle class="st0" cx="524.9" cy="200.4" r="3.8"/><circle class="st0" cx="527.4" cy="157.6" r="5.8"/><circle cx="8.5" cy="461.1" r="6.9"/><path d="m122 413-2-1-1 2c6 10 6 22 5 35h-1c-1-2-17-19-30-15-8 3-12 12-13 30-1 17-7 25-12 28-1 1-3 0-5-1s-5-7-4-16c1-12-2-22-10-27-5-3-11-4-16-1-7 4-10 13-10 25 1 14-2 17-4 18s-5 0-6-1c-2-1-4-1-5 1l-1 2-7-10v6c6 8 15 14 28 19h1l1-2-1-1-15-7c3 1 6 1 8-1 6-3 9-11 8-25 0-9 2-15 6-18 3-1 7-1 9 1 2 1 9 6 7 20-1 11 2 19 7 23l7 2 5-1c4-2 14-9 16-33 1-14 4-23 9-25 7-2 19 9 22 13 1 2 3 2 5 1-4 24-16 48-18 52l-6 1c4-2 5-6 3-10-2-3-7-4-10-2s-5 6-3 10l4 3-19 1-1 1 1 2a248 248 0 0 0 34-4c5-11 10-23 13-35 8-27 8-47 1-60z"/><path d="M0 448c1-3 3-5 6-7 17-12 50-1 50-1h2v-1c0-1 3-27 19-37 7-4 15-5 25-2h2l-1-2c-11-4-20-3-28 2-7 4-12 12-16 23l-4 14-17-4c-15-2-26 0-34 6l-4 4v5z"/><path d="M134 410c-4-11-12-19-24-23-14-4-26-4-37 2-17 9-24 28-27 34l-17-1c-11 0-22 2-29 7v4c9-6 21-7 30-7l17 1c1 1 2 0 3-1 0 0 7-24 25-34 10-5 21-5 33-1 11 4 18 11 22 21 14 34-14 94-18 102-9 2-81 11-113-16v5c15 11 38 17 69 18h4a283 283 0 0 0 43-4c2-3 35-69 19-107z"/><circle cx="107.3" cy="462.4" r="6.1"/><path d="M96 413c0 2 2 5 5 5s5-2 5-5-2-6-5-6v1c-3 0-5 2-5 5zm-47 76a5 5 0 1 0 5 5c0-3-2-5-5-5z"/><path class="st2" d="M651 1068a12 12 0 1 1-21 13c-4-6-12-28-6-32s23 13 27 19z"/><path d="m642 1087 1 1c1 2 5 3 7 1 3-2 3-5 2-7v-1l-10 6z"/><path class="st2" d="M326 967c-5 4-13 4-18-1-4-5-4-13 1-17v-1c5-4 26-16 30-11s-8 25-13 30z"/><path d="M306 962c-3 1-4 5-2 7l1 1c2 2 5 2 8 0l-7-8z"/><path class="st2" d="M383 701a12 12 0 0 1 22 11c-3 6-18 25-24 22s-1-27 2-33z"/><path d="M404 699v-1a6 6 0 0 0-10-5v1l10 5z"/><path class="st2" d="M314 788a12 12 0 1 1 12-22c6 3 23 20 20 26s-26-1-32-4z"/><path d="M312 767c-3-2-7-1-8 2a6 6 0 0 0 3 8l5-10z"/><path class="st2" d="M180 703a12 12 0 0 1 12-22c6 3 24 18 21 24s-26 1-33-2z"/><path d="M178 682h-1c-3-1-6 0-7 3-2 2-1 6 2 7h1l5-10z"/><path class="st2" d="M241 804a12 12 0 0 1-23-9c2-6 15-26 21-24s5 26 2 33z"/><path d="M221 809v1c-1 3 0 6 3 7s6-1 7-4l1-1-11-3z"/><path class="st2" d="M164 754a12 12 0 0 1 3 25c-7 1-31-3-31-10s21-14 28-15z"/><path d="M177 771h1c3-1 5-4 5-7s-3-5-6-5h-1l1 12z"/><path class="st2" d="M440 865c-4-5-3-13 2-17a13 13 0 0 1 18 2c4 6 13 27 8 32s-24-11-28-17z"/><path d="M447 846v-1c-2-3-6-3-8-1-3 2-3 5-2 8h1l9-6z"/><path class="st2" d="M484 716c-5 4-13 4-18-1-4-5-4-13 1-18 5-4 25-16 30-11s-8 25-13 30z"/><path d="M463 711a6 6 0 0 0 7 9l1-1-8-8z"/><path class="st2" d="M376 850a12 12 0 0 1-25-3v-1c1-6 10-28 17-27s9 24 8 31z"/><path d="M357 859c-1 3 1 6 4 7s6-1 7-4v-2l-11-1z"/><path class="st2" d="M462 757c7 0 12 6 11 13s-6 12-13 11h-1c-7-1-29-9-28-15s24-10 31-9z"/><path d="M472 775c3 1 6-1 7-4s-1-6-4-7h-2l-1 11z"/><path class="st2" d="M573 1115c2-6 9-10 15-8 7 2 10 9 8 15-2 7-13 27-20 25s-5-25-3-32z"/><path d="M593 1109v-1a6 6 0 1 0-11-2l11 3z"/><path class="st2" d="M407 1087c6-4 14-3 18 3 4 5 2 13-3 17h-1c-6 4-28 12-32 6s13-23 18-26z"/><path d="M427 1095v-1c3-2 4-5 2-8-2-2-5-3-8-1h-1l7 10z"/><path class="st2" d="M322 1031c6-4 13-3 17 3s2 14-3 18c-6 3-28 11-32 6s12-23 18-27z"/><path d="M341 1039h1c3-2 3-6 1-8-1-3-5-4-7-2l-1 1 6 9z"/><path class="st2" d="M272 871a13 13 0 0 1-9 23c-6-2-26-16-23-22s26-4 32-1z"/><path d="m276 891 1 1c3 1 6-1 7-4s0-6-3-7h-1l-4 10z"/><path class="st2" d="M172 604c7 3 10 10 8 16-3 7-10 10-16 8h-1c-6-3-26-17-23-23s26-3 32-1z"/><path d="M177 625c3 1 7 0 8-3s-1-6-4-7v-1l-4 11z"/><path class="st2" d="M349 685c4 5 3 13-2 17-6 4-13 4-18-2-4-5-14-26-9-30s24 10 29 15z"/><path d="m342 705 1 1c2 2 5 3 8 1 2-2 3-5 1-8v-1h-1l-9 7z"/><path class="st2" d="M497 1076a12 12 0 1 1-24 8v-1c-2-7-2-31 4-32s18 19 20 25z"/><path d="M483 1092v1a6 6 0 1 0 11-2v-2l-11 3z"/><path class="st0" d="M583 389c-7 8-17 5-24-2s-11-17-4-25 30-19 38-11-2 30-10 38z"/><path class="st0" d="M553 380c-5 0-9 3-9 4 1 3 5 3 6 3-2 3-2 6-1 9l8-2c-1 0-1 5 2 8 1-1 6-5 7-9"/><path d="M588 360c-1 1-4 2-5 1s0-3 2-5 5-1 5-1 0 3-2 5zm-19 25c-2 1-4 2-5 1s0-4 2-5l4-1s1 3-1 5zm13-1c-1 2-4 2-5 1s0-3 1-5 5-1 5-1 1 3-1 5zm-5-17c-2 1-3 2-4 1s-1-3 1-4l4-1-1 4zm-16 4h-4l1-4c1-2 4 0 4 0l-1 4z"/><path class="st0" d="M169 52c-8 7-17 5-25-3s-11-16-4-24 30-19 38-12-2 31-9 39z"/><path class="st0" d="M138 43c-5-1-8 3-9 4 2 3 6 3 7 3-3 3-3 6-1 9l7-3c0 1-1 6 2 8 1 0 7-4 7-9"/><path d="M154 47c-2 2-4 2-5 1s0-3 2-5 4-1 4-1 1 4-1 5zm13-1c-1 2-3 3-4 2s-1-3 1-5 4-1 4-1 1 3-1 4zm-5-17c-2 2-3 2-4 1s-1-2 1-4 3 0 3 0v3zm-16 4c-2 1-3 2-4 1s0-3 1-4l4-1-1 4z"/><path d="M157 14s-6 10 5 10c18 1 2 14 12 14 7 1 12-25 0-26s-17 2-17 2z"/><path class="st0" d="M46 1961c-11 2-17-5-20-16s0-20 11-22 35 0 38 11-19 24-29 27z"/><path class="st0" d="M25 1937c-4-4-9-3-10-2 0 3 3 5 4 6-3 1-5 4-6 7l8 2c-1 0-4 4-3 8 2 0 8 0 11-4"/><path d="M36 1949c-2 0-4 0-4-2s1-3 3-3l5 2s-1 3-4 3zm12 7c-3 0-5-1-5-2s1-3 4-3l4 1-3 4zm4-18c-2 1-3 0-4-1s2-2 3-3 4 1 4 1l-3 3zm-15-5-4-2 4-2 3 1s-1 3-3 3z"/><path d="M56 1923s-9 5-1 11c15 10-5 12 3 18 5 4 24-14 15-22s-17-7-17-7z"/><path class="st0" d="M898 2137c-9 10-21 7-30-2s-14-21-5-30 37-24 46-15-2 38-11 47z"/><path class="st0" d="M861 2127c-7-1-11 3-12 4 2 4 7 4 9 4-3 3-3 7-2 11l9-3c0 1 0 7 3 10 2-1 8-5 8-11"/><path d="M880 2132c-2 2-4 2-6 1s0-4 2-6 6-1 6-1 1 4-2 6zm16-1c-2 2-4 3-6 2s0-4 2-6 6-2 6-2 0 4-2 6zm-6-21c-2 2-4 2-5 1s-1-3 1-4l5-2-1 5zm-20 5c-2 1-4 2-5 0s0-3 2-4l5-1s0 3-2 5z"/><path d="M883 2092s-6 11 6 12c23 0 3 16 16 17 8 0 15-30 0-33s-22 4-22 4z"/><path class="st0" d="M1079 677c4-13 5-29-2-41-4-7-11-12-19-13-9 0-16 7-17 15l1 1c0 4 2 10 6 11s8-3 5-6m-54 63c17 8 38 14 55 4l11-9m-95-11 10 6m-67 12c3-16 18-31 36-28m-6-88c-34-2-34 38-15 42"/><path class="st0" d="M906 706s-7-49 33-52c49-2 56-44 20-57"/><path d="M74 584h-2c-9 7-19 11-30 12-7 0-13-1-19-4h-2l-2 3-19 36v8l23-42v-1c6 3 12 4 19 4 11-1 22-5 31-12 11 10 13 26 7 39l-28 52a32 32 0 0 1-52 7v6a36 36 0 0 0 55-11l28-52c8-16 4-34-9-45z"/><path d="M31 705c-6 0-11-1-16-4l-2 1-1-3v-1c0-1 1-2 2-1h1c16 8 35 3 43-12l28-53c9-16 5-31-11-42v-3l2-1c23 17 19 35 13 48l-28 53c-6 11-18 18-31 18zM2 690H0v8l3-5-1-3z"/><path d="m13 695-3 1-10 20v9l14-27-1-3zm33-33-2-1c-2 0-3-1-3-3-2-4 2-10 6-17 4-6 8-13 8-16l-2-1-2-1c-2 1-4 6-5 10-1 6-3 10-6 12l-5-1c-2 0-3-1-3-3-1-4 3-11 8-18 3-5 7-11 6-13v-1c-6-2-12 13-16 25s-8 22-13 25h-4l-4-4c-2-5 3-12 8-19 3-4 8-12 7-13h-1c-2 0-3 3-5 6-2 5-5 10-11 10l-4-3c-3-5 4-17 5-19l3-1 1 3h-1c-3 6-5 13-4 15l1 1c2 0 5-4 7-8s4-8 7-8c1-1 3 0 4 1 5 3 0 10-5 18-4 6-9 13-8 16l1 1h2c3-2 7-12 10-22 6-15 11-31 21-28l3 3c2 4-2 10-7 17-3 6-8 12-7 15l1 1h1c2 0 3-5 4-9 2-5 4-11 7-12h6c2 1 3 2 3 4 2 5-3 12-7 19l-7 14h1c4 1 7-8 10-15 3-11 7-22 15-22 4 0 7 2 9 4 3 6-1 14-2 15l-2 1c-1 0-2-2-1-3 1-2 3-8 1-11-1-1-2-2-5-2-5 0-8 10-12 19-3 10-6 19-12 19z"/><path class="st0" d="M843 1063c-28-14-101 10-128 39l-44-148 5-6"/><path class="st0" d="M843 1062c-21-20-97-13-127 21l-43-147c46-45 113-35 126-23l44 149zm65-185h21l44 148c-19-5-93 6-128 38"/><path class="st0" d="M944 998c-61 1-94 44-99 65l-45-149c4-14 19-57 100-63l44 147z"/><path class="st1" d="M815 905c10-15 33-36 71-39m-67 58c11-15 33-36 72-39m-9 21 15-2m-71 39c9-14 23-24 37-31m-30 51c10-15 33-36 71-39m-66 57c11-15 33-36 72-39m-67 62c10-15 33-36 72-39m-38 33c13-8 28-12 43-13m-72 39c5-7 11-13 17-18"/><path class="st0" d="m889 1053-45 10h1l-129 47c-5 1-10-1-11-5l-38-128c-2-4 1-8 5-10m263-78c5-1 9 1 10 5l38 128c2 4-1 9-6 10l-65 15"/><path class="st1" d="M689 939s43-39 99-20m-60 22c21-8 45-8 67-1m-100 19 14-9m-8 29s43-38 99-20m-93 41s43-39 99-20m-22 17c10 0 20 2 29 5m-99 19c9-8 21-14 33-18l19-5m-47 42s43-39 99-20m-94 37s43-38 99-19"/><path class="st0" d="M592 954c16 12 16 30 12 39-5 12-27 10-48 1s-32-24-27-36c5-9 20-22 36-16"/><path class="st0" d="m601 997-25 29c-3 4-18 5-30-1s-23-16-23-21c0-9 5-38 5-38"/><ellipse transform="rotate(-61 581 943)" class="st0" cx="580.7" cy="942.5" rx="13.4" ry="15.8"/><path class="st0" d="M621 908c-20 2-37 28-37 28"/><path class="st0" d="M567 904s9-23 31-17c21 5 24 21 24 21s-9-4-26 2c-15 6-29-6-29-6zm15 29s-2 3 5 5"/><path class="st0" d="M578 901s16-13 44 7m-32-17 4 5m-9 7 4-6"/><path d="M535 951c8-8 21-4 14 5-10 12 6 20 14 6s34-5 29 13c-7 21 16 14 14 5" style="fill:none;stroke:#000;stroke-width:8;stroke-linecap:round;stroke-linejoin:round"/><path class="st0" d="m534 990-5 22m30-10-4 9m-3 5-4 10m21-11-8 13m-17-23-6 16"/><circle cx="581.4" cy="976.9" r="3.2"/><circle cx="566.2" cy="970.6" r="3.2"/><path class="st0" d="M564 979c-4 6 5 16 13 6"/><ellipse transform="rotate(-81 709 729)" class="st0" cx="709.4" cy="729.5" rx="30.3" ry="23"/><path class="st0" d="m702 759 57 10c12 1 23-10 26-26s-3-30-14-32l-55-11"/><path class="st4" d="M690 722s6-15 21-11c17 5 5 40-9 37-15-4-8-25 3-22"/><circle cx="741.4" cy="731.7" r="4.7"/><circle cx="770.9" cy="736.4" r="4.7"/><path class="st1" d="M752 737s2 6 9 2"/><ellipse transform="rotate(-2 465 1624) scale(.99999)" class="st0" cx="465" cy="1624.4" rx="22.9" ry="30.2"/><path class="st0" d="m466 1655-58 2c-12-1-22-13-22-29s6-30 18-31l59-3"/><path class="st4" d="M484 1618s-6-16-21-14c-17 3-10 40 5 38s10-24-1-22"/><circle cx="430.2" cy="1621.4" r="4.7"/><circle cx="400.3" cy="1622.6" r="4.7"/><path class="st1" d="M419 1625s-2 6-9 1"/><circle class="st1" cx="1092.3" cy="741.2" r="11.1"/><path class="st1" d="M501 1027c15 12 16 33 4 47 0 0 0 0 0 0h0m-51-44c8-10 21-14 34-11m-31 59c-10-9-14-22-10-35m79-353c1 19-14 34-33 35m-2-68c13 0 25 7 31 18m-64 18c0-13 7-26 18-32m-208 389c4-18 21-30 40-27 0 0 0 0 0 0h0m-13 67c-13-2-23-12-26-24m66-3c-3 13-12 23-25 26M109 753c9-16 30-22 46-13 0 0 0 0 0 0h0m-32 59c-11-6-18-18-18-31m64 18c-6 11-19 18-32 17m418 371a34 34 0 0 1 1-48s0 0 0 0h0m46 50c-9 9-23 11-35 7m37-55c9 9 11 23 7 35"/><path class="st0" d="M680 527c6-9 16-8 25-2s13 15 7 24-27 23-36 17-2-31 4-39z"/><path class="st0" d="M711 531c6 0 9-4 9-5-2-3-6-2-7-2 2-3 1-6 0-9l-7 3s0-5-4-7c-1 0-5 5-5 9"/><path d="M695 529c1-2 3-2 4-2v5c-1 2-5 2-5 2l1-5zm-13 3c1-2 3-3 5-2s1 3-1 5-4 1-4 1v-4zm8 16c1-2 3-3 4-2s1 3-1 4l-3 2v-4zm15-6c2-2 3-2 4-1s1 2-1 4-4 1-4 1l1-4z"/><path d="M697 562s4-10-6-9c-19 2-4-13-14-12-7 0-9 26 3 26s17-5 17-5z"/><path class="st0" d="M670 555c-37 23-85 66-78 73 3 3 31-2 63-11m54-16c24-8 43-16 44-20 4-9-18-31-37-38"/><path class="st0" d="M592 629s6 27 15 24c8-3-2-16 6-18 9-2 7 35 20 31s-10-35-2-37 2 22 17 18-5-17 10-24 11 30 23 24-2-19 7-24c15-7 12 31 26 22 11-6-13-28 9-36s10 31 24 21-11-32-2-38c8-5 8 19 14 15s-5-28-5-28"/><path class="st0" d="M607 653s6 21 10 24 53 2 99-15 50-33 50-33l-6-22"/><circle class="st0" cx="599.5" cy="694.1" r="7"/><circle class="st0" cx="747.9" cy="548.8" r="7.3"/><circle cx="657" cy="594.7" r="6.3"/><path d="M705 577c1 3-3 1-7 2s-4 5-5 2c-1-4 1-7 4-8s7 1 8 4z"/><path class="st1" d="M672 596s4 7 10-2m0-1s10 4 10-3"/><path class="st0" d="M869 1704c-42-11-117-20-117-11 0 6 23 22 51 39m49 28c22 12 41 20 45 18 9-4 9-38 1-56"/><path class="st0" d="M751 1694s-15 23-7 27 11-12 18-7-21 29-9 36 18-32 25-27-15 16-1 24 9-15 24-8-14 28-1 32 12-14 22-11c16 6-15 30 2 35 12 3 11-29 32-19s-15 29 2 31 15-29 26-27c9 2-8 19-1 21s16-23 16-23"/><path class="st0" d="M745 1721s-12 20-11 24 35 40 79 62 58 14 58 14l12-20"/><circle class="st0" cx="709.3" cy="1744.6" r="7"/><circle class="st0" cx="916.8" cy="1752.3" r="7.3"/><ellipse transform="rotate(-45 881 1717)" class="st0" cx="880.7" cy="1717" rx="16.6" ry="17"/><path class="st0" d="M885 1708s17-24 10-47"/><path class="st0" d="M880 1706c2 3 5 4 9 3m-64 5 5 10h-10m40 8-10 2 3 7m-645-601-28 11-46-82 56-21zm-90-102s-27-16 12-56"/><path class="st0" d="M109 1010c-6 3-43-19 12-60m57 65s12-19-5-31"/><path class="st0" d="M104 965s-17-16 1-28c26-17 6-37 6-37s14-5 25 7c4 4 6 9 6 14 0 4-1 9-4 13m23 64s34-26-5-48"/><path class="st0" d="M144 964s30-24-1-41m-11 78s-11-3-12 5c-2 10 20 7 20 7s11-20 0-23c-8-2-8 11-8 11z"/><path class="st0" d="M135 943s-5-9-12-4c-8 6 6 17 6 17s22-6 18-16c-3-6-12 3-12 3z"/><ellipse transform="rotate(-20 157 970)" class="st0" cx="156.8" cy="970.2" rx="4.4" ry="3.7"/><ellipse transform="rotate(-20 119 978)" class="st0" cx="119.3" cy="978.1" rx="5.2" ry="4.4"/><ellipse transform="rotate(-20 96 916)" class="st0" cx="96.2" cy="916.1" rx="6.3" ry="5.4"/><path class="st0" d="m163 1022 3 8c1 3-1 7-5 9s-8 0-10-4l-3-8-1 1 5 15c2 3-1 7-5 9s-8 0-9-4l-6-15-22 8 12 32 79-29-11-32-27 10z"/><ellipse transform="rotate(-68 897 698)" class="st0" cx="897" cy="697.9" rx="9.8" ry="49.1"/><path class="st0" d="m852 682-13 16c-3 6 19 19 47 31s53 16 55 10l2-20"/><path class="st0" d="m844 707-23 107c15 13 34 21 55 22l57-95"/><path class="st0" d="M839 731s27 28 81 32m-88 5s19 23 68 29"/><path d="M874 772c1 3 3 7 2 11 3-2 4-4 5-7 3-6 2-11-2-14-5 0-5 6-5 10zm-7 12 4 1 1-2c1-4-2-8-2-13s0-8 3-10c-4 0-9 3-11 8-2 7 0 14 5 16z"/><path class="st0" d="m728 2345 32-130c1-6 8-10 15-9l191 48c7 2 11 8 9 15l-32 129c-2 7-8 11-15 9l-192-47c-6-2-10-9-8-15zm0-4-51-66c-3-4 1-6 8-4l57 14"/><path class="st0" d="M738 2360c-7-2-15-7-18-11l-46-62c-5-6 0-17 6-18"/><path class="st1" d="m836 2284 70-7-30 51-18-22 19-15-27 5z"/><path class="st1" d="m851 2296-2 23 9-13m5 7-14 6m-17-23-31 14m29 8-28 16m61-9-25 20"/><path class="st0" d="M955 2349s111-1 86-117c-18-87-186 5-222-91-25-64 59-60 56-134"/><path d="M732 1962a59 59 0 1 1 116-23" style="fill:none;stroke:#000;stroke-width:9;stroke-linecap:square;stroke-linejoin:round"/><path class="st0" d="m724 1968 13-2c5-1 9 1 9 6l11 53c0 4-2 8-6 9l-14 3c-4 1-8-2-8-6l-11-54c-1-4 2-8 6-9zm119-23 13-2c4-1 8 2 9 6l11 54c0 4-2 8-6 8l-14 3c-4 1-8-2-9-6l-10-54c-1-4 2-8 6-9zm25 11h0c6-1 11 3 12 9 0 0 0 0 0 0h0l4 19c1 6-2 11-8 12 0 0 0 0 0 0h0-1"/><path class="st0" d="M726 2021h0c-6 1-11-3-12-8l-4-20c-1-5 2-11 8-12h1M935 260l-67-19c-5-1-7-6-6-11l26-89m114 118-3 10c-2 5-6 8-11 7l-23-7m59-88-17 56m-59-79-69-20 7-26c1-5 6-7 11-6l138 40c5 1 8 6 6 11l-7 25-70-20"/><path transform="rotate(-74 947 192)" class="st0" d="M877 184h140v16H877z"/><path class="st0" d="M973 118s25-52 55-42-55 42-55 42z"/><path class="st0" d="M978 129s15 2 39-7 23-24 23-24l-6-17"/><path class="st0" d="M993 109s11-20 30-17m-68 24s-54-36-42-65 42 65 42 65z"/><path class="st0" d="M964 114s2-25-6-49-22-25-22-25l-18 5"/><path class="st0" d="M944 87s-20-12-15-31m25 65s-2-7 9-6c18 2 14 13 14 13m-59-48c-16-6-36-5-58 17-52 55-81-11-81-11l4 25-15-1s45 51 79 19c45-43 63-50 91-12m79 94s29 15-11 29-122 21-113 98c10 85 111 66 111 66l-16-12 16-8s-79 9-87-45c-6-45 20-67 96-82 66-14 35-62 9-66M650 1982l38 40m-38-40s14 14 23 8c12-10 21 0 21 0s-12-19-22-12c-15 11-22 4-22 4z"/><ellipse transform="rotate(-63 684 2034)" class="st0" cx="683.7" cy="2034.4" rx="13.3" ry="8.9"/><path class="st0" d="m932 1838-22 42m22-42s-8 15 0 21c11 7 6 17 6 17s12-16 3-22c-13-8-9-16-9-16z"/><ellipse transform="rotate(-83 899 1881)" class="st0" cx="898.9" cy="1880.8" rx="7.7" ry="11.5"/><path class="st0" d="m782 1932 15 45m-15-45s5 16 15 14c13-3 17 8 17 8s-3-20-14-18c-15 4-18-4-18-4z"/><ellipse transform="rotate(-39 790 1985)" class="st0" cx="789.9" cy="1985.3" rx="11.5" ry="7.7"/><circle class="st0" cx="880.1" cy="1921" r="7.1"/><path class="st0" d="m657 1926 30 22m50 105-12 43m172-88 27 25m-25-53 52 2m-57-33 26-15M667 806a10 10 0 1 0-6-19l-1-2c4-4 4-10 0-14s-11-4-15 0c0 0 0 0 0 0l-3-1c2-6 0-12-5-14a10 10 0 0 0-15 9v1h-2c-2-5-8-8-13-6a11 11 0 0 0-6 14l-2 1c-4-4-10-4-14 0a10 10 0 0 0 2 17l-1 1c-5-2-11 2-12 7a10 10 0 0 0 10 13h0v1a10 10 0 1 0 1 20l6-2h1c-4 5-4 11 1 15 4 4 10 3 14-1l1-1h0v3a10 10 0 0 0 20 2c3 6 9 8 14 6 5-3 7-9 5-14h1c4 4 10 4 14-1 4-4 4-10-1-14l1-1a10 10 0 0 0 13-10c0-5-3-9-8-10z"/><path class="st0" d="m607 802 11 4-9 8m30-23-7 11 11 1m-22 14s10 6 15-3m-82-237a10 10 0 0 0-4-17l-7 2c-4 0-8-2-10-5l-2-2h-4c-8 0-14-6-15-14h-4c-2 3-6 4-9 4a15 15 0 0 1-15-17c-5-2-11 0-13 6-1 3 0 8 2 11h1-1a10 10 0 0 0-14 15c2 2 4 3 7 3l-1 1a10 10 0 0 0 1 21l1-1v0l-2 2a10 10 0 0 0 13 17 10 10 0 0 0 19 8h0a10 10 0 0 0 21-1h1l2 2a10 10 0 0 0 16-13c4 4 11 3 15-1 3-4 3-10-1-14l-5-3 1-1c2 0 5-1 7-3z"/><path class="st0" d="m497 554 6 10h-12m37 5-13 3 7 9m-25-7s10-3 12 8"/><circle class="st0" cx="539.9" cy="545.1" r="2.9"/><circle class="st0" cx="529.4" cy="529.6" r="8.3"/><circle class="st0" cx="555.5" cy="516.5" r="5.4"/><path class="st1" d="M882 1040s10 2 8 17-8 37 20 41 38-24 38-24l-15 3 1-15s-14 27-25 15 10-30-1-44"/><path d="M1125 950c-22 14-50 24-56 26-6-7-45-51-42-82 0-9 5-17 12-21 5-4 10-6 15-6l6 1c17 5 28 30 28 30l2 2 2-1s16-13 33-12v-4c-7 0-15 1-24 5l-10 7c-3-7-14-26-30-31-8-2-16 0-24 5-8 6-13 14-14 24-2 15 5 34 21 57a254 254 0 0 0 24 30h1a310 310 0 0 0 56-25v-5z"/><path class="st0" d="m1066 976-6 25m5 2 6-26m-15 40-8 32c-1 2 0 3 1 3h1c1 1 2 0 3-2l8-31m-4-17s-4-19-13-13-15 37-4 33 14-7 14-7m13-9s15-14 19-5-7 40-14 30l-8-13"/><path class="st0" d="m1054 1011 2-5c0-3 3-4 5-3l3 1c3 0 4 3 3 5l-1 6c-1 2-3 3-6 3l-3-1c-2-1-4-3-3-6z"/><circle cx="1061.4" cy="911.8" r="5.8"/><circle cx="1105.9" cy="924" r="5.8"/><path d="M1081 924c2 0 5 1 4 3 0 2-3 1-4 1-2 0-2 3 0 3l1 1 1 1v2h-5c-2-2-3 1-1 2 2 2 8 2 10-1 3-4-2-7-5-7l-1 3c3 0 7-1 8-5s-4-5-7-6c-2 0-2 3-1 3z"/><path class="st0" d="M245 1441v-25c0-10 8-18 19-18h60c10 0 19 8 19 18h0v25c0 10-9 18-19 18 0 0 0 0 0 0h-54l-20 24 5-26c-6-3-10-9-10-16z"/><path d="M262 1430v4h2l-1 4h3l1-4h3l-1 4h3l1-4h3v-4h-2v-2h2v-4h-1l1-4h-4l-1 4h-2l1-4h-4v4h-4v3h3l-1 3h-2zm6-2h3l-1 2h-2v-2zm11 2h4l2-6 2 5h4l-4-9h-4l-4 10zm28 1-2-3 2-1 1-1v-2l-1-3-4-1-5 1-1 3v2l2 2-4 2v3l1 3 5 2 4-1 3-1 1 1 1 1 3-3-1-1-2-1 1-1v-2l-3-1-1 2zm-2 3-3 1-2-1-1-1 1-1 1-2 4 4zm-4-10 1-1h2v2l-2 1-1-2zm18-2v1h-1l-1-1-1 2 2 1h1l-1 1-1 1 2 2 1-2v-1l1 1 1 2 2-2-1-1-1-1h1l2-1-1-2-2 1h-1v-1l1-2h-3v2zm9 2 1 8h3l2-8v-4h-5l-1 4zm1 13h4v-4h-5v4z"/><path class="st0" d="m137 1459 56-20c12-4 26 2 30 15l46 130c5 12-2 26-14 30l-57 20c-12 4-26-2-30-15l-46-130c-4-12 2-26 15-30z"/><path class="st0" d="m139 1464 55-19c10-3 20 1 23 11l46 129c3 10-2 20-11 23l-55 20c-10 3-20-2-23-11l-46-130c-3-9 2-19 11-23z"/><circle class="st0" cx="218" cy="1604.4" r="10.6"/><path class="st1" d="m153 1550 51-106m-34 159 58-119"/><path class="st0" d="M630 1549v-24c0-10-8-19-18-19h0-61c-10 0-18 9-18 19h0v24c0 10 8 19 18 19h55l20 23-6-25c6-3 10-10 10-17z"/><circle class="st2" cx="581.9" cy="1536.5" r="19.7"/><circle cx="573.7" cy="1532.9" r="2.7"/><circle cx="589.4" cy="1532.9" r="2.7"/><path d="M589 1540c-8 8-14 0-14 0h14z"/><ellipse transform="rotate(-16 240 1850)" class="st0" cx="239.9" cy="1849.6" rx="51.5" ry="8.7"/><path class="st0" d="m191 1864 26 93c2 5 25 2 52-6s48-18 46-23l-26-93"/><path d="M209 1864c21-11 44-17 67-19-10 5-22 10-34 13l-33 6z"/><path class="st2" d="M293 1848c30-20 63 31 17 60"/><path class="st2" d="M296 1859c11-15 46 11 10 40m-89-36s-18-68-50-27c-36 47-60 10-60 10"/><path transform="rotate(-39 100 1833)" class="st2" d="M87 1819h27v27H87z"/><path class="st2" d="M246 1783s1 14 20 18 111-28 122-45 1-25 1-25"/><path class="st2" d="M251 1753c-13 13-15 33 1 29s29-30 47-27 28 24 44 2 43-6 47-29c6-30-98-15-139 25z"/><path class="st2" d="m268 1750 11-5c2-1 3 0 4 1 1 2 0 4-1 5l-11 5c-1 1-3 0-4-2-1-1 0-3 1-4zm81-22 10-5c2-1 4-1 4 1 1 1 0 3-1 4l-11 5c-1 1-3 0-4-1-1-2 0-3 2-4zm-28 17 11-2c2 0 3 1 4 3 0 1-1 3-3 3l-12 2c-1 0-3-1-3-3 0-1 1-3 3-3zm-9-10 7-10c1-1 3-2 4-1s2 3 1 5l-7 9c-1 2-3 2-4 1-2-1-2-3-1-4z"/><circle class="st0" cx="245.2" cy="1240.5" r="14.5"/><circle transform="rotate(-22 200 1378)" class="st0" cx="199.6" cy="1377.9" r="18.5"/><circle transform="rotate(-45 25 1184)" class="st0" cx="25.1" cy="1183.8" r="15"/><path class="st0" d="M199 1305a41 41 0 0 0 7-60 35 35 0 0 0-41-58 15 15 0 0 0-28-5h-2a26 26 0 0 0-52 6l1 2a26 26 0 0 0-21 44c-14 4-21 18-18 31a25 25 0 0 0 5 47 35 35 0 0 0 46 53 39 39 0 0 0 74-14c18 0 32-16 32-34 0-4-1-9-3-12h0zm-178 0a12 12 0 1 0 6 15s0 0 0 0h0c3-6 0-13-6-15 0 0 0 0 0 0h0z"/><path class="st0" d="m96 1365-19 70 11 2 14-63m73-115a20 20 0 0 0-24-28 21 21 0 0 0-43 1c-6-6-14-6-20-2-4 4-6 10-5 15"/><circle cx="101.3" cy="1276.3" r="5.4"/><circle cx="152.1" cy="1289.9" r="5.4"/><circle transform="rotate(-88 123 1297) scale(1.00004)" class="st0" cx="123.2" cy="1296.8" r="8.2"/><path class="st0" d="m156 1290 7-1m-71-21 9 8m377 671v-33c0-14 11-26 25-26h82c14 0 26 12 26 26h0v33c0 14-12 25-26 25 0 0 0 0 0 0h-74l-27 32 7-35c-8-4-13-12-13-22z"/><path d="M501 1933v4h2l-1 6h4l1-6h4l-1 6h4l1-6h5v-4h-4l1-4h3v-5h-2l1-5h-4l-1 5h-4l1-5h-4l-1 5h-5v5h4l-1 4h-3zm8-4h4l-1 4h-4l1-4zm14 3h6l3-8 3 8h6l-7-13h-4l-7 13zm39 1-3-3 3-2 1-2 1-2-2-4-6-1-6 1-2 5 1 2 2 2-5 4-1 3 2 5 7 2 6-1 3-1 2 1 2 1 3-4-1-1-2-2 1-4-5-1-1 2zm-3 4-4 2-3-1-1-3 1-1 1-2 6 5zm-5-13 1-1h3l1 1-1 2-2 1-2-3zm25-3v2l-1-1-3-1-1 3 3 1h2l-2 1-2 2 3 2 1-2 1-2 1 2 1 2 3-2-2-2-1-1h2l2-1-1-3-2 1-1 1h-1l1-2v-2h-3v2zm12 3 2 11h4l1-11v-5h-7v5zm1 18h6v-5h-6v5z"/><circle class="st0" cx="564.8" cy="1627.8" r="7.2"/><circle class="st0" cx="1064.5" cy="1965.7" r="7.2"/><circle class="st0" cx="996.8" cy="1122.7" r="7.2"/><circle class="st0" cx="524" cy="2027.2" r="9.4"/><circle class="st0" cx="562.5" cy="1440.5" r="9.4"/><circle class="st0" cx="1072.5" cy="511.8" r="9.4"/><circle class="st0" cx="1090.8" cy="171.9" r="9.4"/><circle class="st0" cx="212.9" cy="2389.9" r="9.4"/><circle class="st0" cx="308.9" cy="1626.5" r="9.4"/><path transform="rotate(-23 591 1740)" class="st0" d="M537 1678h107v125H537z"/><path transform="rotate(-23 586 1730)" class="st1" d="M542 1690h89v81h-89z"/><path class="st1" d="m568 1770 6-43 31 16 6-17 21 16z"/><circle class="st1" cx="594.3" cy="1706.6" r="10.6"/><path transform="rotate(-64 452 1440)" class="st0" d="M390 1387h125v107H390z"/><path transform="rotate(-64 457 1431)" class="st1" d="M416 1386h82v89h-82z"/><path class="st1" d="m414 1443 38-24 7 34 17-7 1 27z"/><circle class="st1" cx="479.9" cy="1421.1" r="10.6"/><path class="st0" d="M894 585a38 38 0 0 0-74 14c4 21 23 26 43 22s35-16 31-36h0z"/><path class="st4" d="M861 576s-6 14-17 6 2-22 19-19 26 24 0 34c-32 13-40-14-40-14"/><ellipse transform="rotate(-81 828 1120)" class="st0" cx="827.5" cy="1119.8" rx="25.2" ry="50.1"/><path class="st0" d="M878 1129c5 4 4 21-5 19s-4 13-13 4-15 11-24 2-16 7-23-2-21 3-25-9-7-5-12-11c-6-6 1-18 1-18"/><path class="st0" d="M875 1149c-1 17-28 27-68 15s-30-30-30-30"/><path d="M80 1055c-5-10-14-19-25-27-21-16-43-20-54-13v6c3-4 7-5 13-5 11 0 26 5 39 15 11 7 19 17 24 26 4 8 5 16 1 21s-10 6-20 5a89 89 0 0 1-56-40l-1-3v8a83 83 0 0 0 56 39h7c8 0 14-2 18-7 4-6 4-15-2-25z"/><path d="M82 1079h-3v2c1 3-1 9-5 12-3 2-4 1-4 0-4-3-8 0-10 1l-3 2-1-3c-3-8-9-7-13-6-6 1-8 0-9-3-2-8-8-8-12-8-5 0-7 0-8-4-1-7-6-9-11-11l-2-1v5h1c5 2 8 3 8 7 1 8 7 8 12 8 4 0 7 0 8 5 2 7 9 6 13 6 5-1 8-1 9 3 1 3 2 5 4 5h1l5-2c3-2 4-2 5-1 3 3 6 3 10 0 4-4 8-12 5-17z"/><path d="M69 1095c-1-1-2 0-2 1-2 4-6 6-12 7-11 2-30-4-52-24l-2-3v6c17 16 35 25 50 25h5c6-1 11-4 14-9 1-1 0-3-1-3z"/><g id="Слой_6"><path class="st0" d="m1003 540 8-21c-7-8-15 7-22-1s-12 9-21 0-12 10-25-1c-10-8-9 9-20 2s-13 5-13 5l10 18s12 11 42 10c38-1 41-12 41-12z"/><circle class="st0" cx="968.5" cy="439.5" r="9.8"/><path class="st0" d="m972 440-5-4m-1 3 5-3"/><circle class="st0" cx="945.8" cy="499.3" r="9.8"/><path class="st0" d="m947 497-5 2m3 3-2-6"/><circle class="st0" cx="964.9" cy="485.3" r="9.8"/><path class="st0" d="m968 484-6-2m1 4 3-5m-12 2c-39 3-44 30-38 32m59-31s37 9 30 33"/></g><path class="st0" d="m930 530 4 13m17-11 1 14m20-14-2 15m22-17-4 13"/><circle class="st0" cx="971.3" cy="505.1" r="4.4"/><g id="Слой_6-2"><path class="st0" d="m622 2095 1-22c-10-6-12 12-22 6s-9 12-19 7-9 13-25 7c-12-5-6 11-19 7s-10 9-10 9l15 15s15 6 43-4c36-13 36-25 36-25z"/><circle class="st0" cx="554.3" cy="2074.8" r="9.8"/><path class="st0" d="m554 2072-3 4m3 1-3-5"/><circle class="st0" cx="568.2" cy="2055.5" r="9.8"/><path class="st0" d="M571 2054h-6m1 3 2-6m-11 6c-36 15-33 42-26 42m47-48s37-3 38 22"/></g><path class="st0" d="m548 2109 9 11m13-16 5 13m14-20 3 16m15-24 1 14"/><circle class="st0" cx="580.4" cy="2072.2" r="4.4"/><path class="st1" d="M717 1855a34 34 0 0 1-41 6c-13-7-20-22-18-37m3-8 1-3a35 35 0 1 1 60 36"/><path class="st1" d="m716 1825-18 3 10 11m-25-32 7 17-15-2m-3 6 34 18s-10 10-22 4c-15-8-12-22-12-22zm-2-8s-20-10-21-1 21 1 21 1zm44 24s19 11 12 16-12-16-12-16zM370 947c0-1-2-37-35-35 33-1 35-33 35-35 1 20 8 33 35 35-20 0-30 10-35 35zm70 242c0-1-2-30-29-29 27 0 29-27 29-29 0 17 7 27 29 29-17 0-25 8-29 29zm166 1094c0-1-2-30-29-29 27-1 29-27 29-29 1 16 7 27 29 29-16 0-25 8-29 29zm-455-362s-2-23-23-22c21 0 22-21 22-22 1 13 6 21 23 22-13 0-19 6-22 22z"/><path class="st0" d="M618 519c0-1-2-30-29-29 27 0 29-27 29-29 1 17 7 27 29 29-16 0-25 8-29 29zm108 681c0-1-1-31-29-29 28-1 29-27 29-29 1 16 7 27 29 29-16-1-25 8-29 29zM587 158c1-1-1-30-29-29 28 0 29-27 29-29 1 17 7 27 29 29-16 0-25 8-29 29z"/><circle class="st0" cx="356.2" cy="1324.3" r="37.8"/><path class="st0" d="M334 1337c-2-2-2-7 1-9 3-4 9-5 12-1m12-11c-3-2-2-7 1-10s9-4 11-1m-11 25c2-2 4-2 5-1s1 3-1 5c1-2 3-2 5-1s2 3 1 5l-1 1"/><circle class="st0" cx="734.3" cy="49.8" r="37.8"/><path class="st0" d="M712 63c-2-3-2-7 1-10s9-4 12-1m12-10c-2-3-2-7 1-10s9-4 12-1m-12 24c2-1 4-2 5-1s1 4-1 6c1-2 3-2 5-1s2 3 1 5l-1 1M441 1313c2-6 18 0 21-15 3-17-13-14-18-4 1-11-13-20-17-4-3 14 12 16 14 23zm620-179c3-8 24-1 28-20 3-21-18-18-23-4 0-15-18-26-22-6-4 18 15 21 17 30zM27 1855c2-6 18-1 21-16 3-16-13-14-17-3 0-12-14-20-18-4-3 13 12 16 14 23zm176 273c3-6 19-1 22-16 3-16-14-14-18-3 0-12-14-21-17-5-3 14 12 17 13 24zm-19-412s-22-6-21 6 30 37 32 22 1-18 1-18m-2-19s-7-23 4-22 39 28 24 31-18 1-18 1"/><path class="st0" d="m186 1713 4-4c2-2 5-2 6 0l7 6v6l-4 4c-2 2-5 2-6 0l-7-6v-6zm-34 342s7-22-5-22-38 29-23 32 17 1 17 1m19-1s23-6 23 5-30 37-33 23 0-18 0-18"/><path class="st0" d="m143 2063 6-6c2-2 4-2 6 0l4 4c2 2 2 4 0 6l-6 6c-2 2-4 2-6 0l-4-4c-2-2-2-4 0-6zm268-371c-21-7-44-10-66-8m167 204c7-19 11-38 8-59-6-49-34-94-76-121m-285 353c21-136 230-20 317-114m546-1348 2 11 5-6c2-6 1-12-3-15-5 0-5 6-4 10zm-10 13h3l1-1c2-4-1-9-2-13s1-8 3-10c-4 0-8 3-10 8-3 7-1 14 5 16z"/><path d="M990 1347c-9-8-24-9-38-4-11 4-26 19-37 56-16 53-43 52-44 53 12-7 21-15 25-25 24-52-41-122-41-122s10-17 9-29c-1-8-3-16-8-22-1-12-2-44-11-45-10-1-22 23-22 23-8-2-17-2-26 1-1-4-13-21-23-20-9 0-9 36-10 44-5 8-7 17-6 26 0 13 14 29 14 29s-84 141 50 150c32 31 96 16 110-42 16-72 51-56 51-55-1 5 2 9 6 9 5 1 9-2 10-6 1-8-2-16-9-21z" style="fill:none;stroke:#000;stroke-width:4;stroke-linejoin:round"/><path class="st0" d="m757 1271-12-6m11 17-15-2m18 13-12 5m118-29 12-6m-12 16 15-1m-17 13 11 4m-77 12s15-14 35-3"/><path d="M874 772c1 3 3 7 2 11 3-2 4-4 5-7 3-6 2-11-2-14-5 0-5 6-5 10zm-7 12 4 1 1-2c1-4-2-8-2-13s0-8 3-10c-4 0-9 3-11 8-2 7 0 14 5 16z"/><path class="st0" d="M116 2246c-4 20 25 73 67 57 18-7 7-24 7-24"/><path class="st0" d="M156 2276c-1-2-14-28 7-36s56 21 43 34-33-5-33-5m54-30c-8 11-58-12-51-30s64 11 51 30z"/><path class="st0" d="M158 2186c6-11 79-7 67 36m-53 84s71 61 115 11m3-25c18-9-11-39 2-33 18 8 28 1 15-36s-28-55-36-47 10 49 10 49c-36-29-50 7-50 7m-9 73s-4-11 13-15"/><path class="st0" d="M249 2296c-2 0-32-11-25-26 9-19 85 29 76 42s-27-1-27-1m-152-158h5c0 1-22-25-31-22s-7 26-7 26l7-3c-15 6-26 17-30 32v-4s-24-5-26 4 27 33 27 33l-2-6 5 12c14 24 41 26 65 12s33-38 19-61c-7-12-18-21-32-23z"/><path class="st0" d="M88 2210s-5-6 0-11c5-4 10 1 10 1m18-16s-3-7 2-11 11 2 11 2m-30 35s8 6 14 0c8-8-1-14-1-14s-6 2-5 0 5-5 5-3v3m5 6c3 0 7-1 10-3 5-5 2-10 0-13m15-15-8 10m3 4 9-2m-10 9 7 1m-60 25 11-4m4 3-8 4m10 0-4 6m200 89s74 26 72-53 11-74 33-58c13 9 20 1 19-9-1-13-23-33-52-16-40 21 7 89-35 111-23 12-37-3-37-3"/><path class="st2" d="M395 1545c-2-6-8-8-14-8l-10-2c-3 0-5-2-8-1-6 1-8 6-8 11 0 11-7 26 7 31 7 2 10 0 14-6 1-3 3-5 6-7 2-1 7-1 8-3 5-3 7-10 5-15zm-33 11c-3-4 2-9 6-7 0-5 5-9 9-5s1 11 0 16c-4-1-12 0-15-4zm-9-31c-4-4-7-11-5-17 2-7 9-4 12-1 4 4 7 12 6 17-2 8-10 5-13 1zm-27 29c-5-5-2-12 5-12 6 1 14 5 16 10 3 4 1 10-5 10-7 0-12-4-16-8zm7-20c-3-3-8-11-1-14 6-3 13 4 16 7s7 12 0 14c-6 2-12-4-15-7zm42-6c-3-5-5-11-4-17 2-8 8-7 12-3 4 5 5 11 4 17-1 7-7 6-12 3z" id="HBLGgD.tif"/><path class="st2" d="M958 1273c5-4 4-10 3-16l-2-10-1-8c-3-5-8-5-13-4-10 4-27 2-27 17 0 7 4 10 10 11 3 0 6 2 8 4 2 1 4 6 6 6 4 4 11 3 16 0zm-21-28c3-4 9-1 9 4 4-1 9 2 7 7-2 4-10 4-15 5-1-4-5-12-1-16zm26-18c3-5 8-10 14-10 8-1 8 7 5 11-3 5-8 10-14 11-8 1-8-8-5-12zm-36-17c3-5 10-5 12 2 2 6 1 14-3 18s-9 4-12-2c-2-6 0-13 3-18zm21 1c2-4 8-11 13-6s1 14-1 18-9 10-14 4c-4-5 0-12 2-16zm20 38c3-5 8-9 15-9 7-1 9 5 6 10s-9 8-15 9c-7 1-8-5-6-10z" id="HBLGgD.tif-2"/><path class="st2" d="M352 2057c-4-5-9-5-16-4l-9 2c-3 0-6-1-8 1-5 2-6 8-5 12 3 11 1 27 16 28 6 0 9-3 11-9 0-4 2-6 4-9 2-1 6-3 7-5 4-4 3-11 0-16zm-28 20c-4-3-1-9 4-9-1-4 2-9 7-7s4 11 5 15c-5 1-12 4-16 1zm-18-27c-4-3-9-9-9-15 0-8 7-7 12-4 4 3 9 8 10 14 0 9-8 8-13 5zm-18 36c-5-4-5-11 3-13 6-2 14 0 18 4s3 9-3 11c-6 3-13 0-18-2zm1-22c-3-2-9-8-4-13s14-1 18 2 9 9 3 14c-5 3-12 0-17-3zm40-18c-5-3-8-9-9-15 0-7 6-9 11-6 5 4 8 9 8 15 1 8-5 8-10 6z" id="HBLGgD.tif-3"/><path class="st2" d="M468 1872a51 51 0 1 1-102 0 51 51 0 0 1 102 0zm-42 0-2-5c-1-2-3-3-5-3h-1c-2 0-4 1-5 3l-2 2v3c0 2 0 4 2 5 1 2 3 3 5 3h1l5-2 2-3v-3z"/><path d="m460 1867-2 2h-33l-1-2 1-2 26-19h1l2 1c4 6 6 13 6 20zm-4-3a31 31 0 0 0-4-12l-18 12h22zm4 11c0 7-3 13-8 19h-3l-23-19a7 7 0 0 0 0-5h1l31 2c1 0 2 1 2 3zm-5 2-22-2 17 14a29 29 0 0 0 5-12zm-9-33-23 22-4-2 6-31c0-2 1-2 2-2 7 1 14 4 19 9v4zm-5-2-12-6-4 22 16-16zm-30 28h-2l-29-10c-2 0-2-2-2-3 3-7 7-12 13-17l3 1 18 26-1 2v1zm-7-6-12-18c-4 2-7 6-9 10l21 8zm7 11-1 1-29 11-3-1c-3-7-3-14-1-21l2-2v1l31 8h1v3zm-9-1-22-6v7l1 7 21-8zm12-8-18-27 1-3c6-4 13-6 20-6l2 3-1 31-4 2zm0-9 1-22a30 30 0 0 0-13 4l12 18zm11 57c-7 1-14 1-21-2l-1-1v-2l12-29v-1l3 1h1l8 31-2 3zm-3-4-6-22-8 21 7 1h7zm27-11c-4 5-10 10-16 12-2 0-3-1-3-2l-10-29 4-3c0 1 0 0 0 0l25 18v4zm-5-1-17-13 6 21c5-2 8-5 11-8z"/><path d="M413 1877v2l-13 29-3 1c-6-3-12-7-15-14v-3l27-16h3l1 1zm-7 7-19 11c2 4 6 7 10 9l9-20z"/><path class="st0" d="M137 1718c5 16-6 37-25 43s-40-7-45-23 7-34 27-39 38 3 43 19zm-26-47s-3 16-13 21-25-2-25-2 2-16 13-21 25 2 25 2z"/><path class="st0" d="M85 1711s7 2 13-3"/><path class="st0" d="M92 1711c-2-11-19-20-19-20l38-20"/><circle cx="108" cy="1714.1" r="2.6"/><circle cx="119.3" cy="1713.3" r="3.7"/><circle cx="110.4" cy="1707.3" r="2.4"/><path class="st1" d="M86 1669v14l12 9m-2-25-1 12 7 5"/><path class="st0" d="M720 300c-7 15-29 23-48 15s-25-31-18-46 27-21 45-12 28 27 21 43zm10-53s-12 10-23 7-18-18-18-18 12-10 24-7 17 18 17 18z"/><path class="st0" d="M685 260s3 6 12 6"/><path class="st0" d="M691 264c5-9-3-27-3-27l42 10"/><circle cx="700.3" cy="277.5" r="2.6"/><circle cx="709.3" cy="284.3" r="3.7"/><circle cx="706.5" cy="273.9" r="2.4"/><path class="st1" d="m713 229-8 11 2 14m15-20-8 9 1 8"/><path class="st0" d="M64 1650s-41-35-41-48 12-24 19-23c8 1 21 19 15 27-3 5-8 9-15 9l30 30-8 5zm37-104s-14-53-26-58-27 1-29 8c-2 8 8 27 18 25 6-1 12-4 15-10l15 40 7-5zm730 185s2 8 9 7m-163-79s7 17 33 9 18-33 18-33"/><path class="st0" d="M812 1596c-9-16-72 30-91 33-6-3-16-2-26 1-14 6-23 18-20 26s18 12 33 6 23-17 20-26l-1-1c22-12 94-24 85-39zM632 418s7 17 33 8 18-33 18-33"/><path class="st0" d="M767 355c-9-16-71 30-91 33-6-3-16-3-25 1-15 6-24 17-20 26s18 11 32 6 24-18 20-26v-1c22-12 93-25 84-39zm-81 952s-17-16-35-9-16 32-37 28-32-20-49 19c0 0 21-14 31 6 10 18 18 64 57 49 44-16-8-75 33-93zm-41 97s11 12 3 18-25 22 11 10 29-18 15-17c-19 1-13-16-13-16"/><path class="st0" d="m651 1298 6-2-1-1a27 27 0 1 0-38 31c17 0 17-22 33-28z"/><path class="st0" d="M614 1326h1l1-1c-12-9-15-25-6-37 0 0 0 0 0 0v-1a26 26 0 0 0-34 40c11-14 21-3 38-1z"/><path class="st0" d="m599 1283 10-77 12 1-11 78"/><path d="m606 1223 14-13-4 25-13 11zm-4 37 13-13-4 25-13 12z"/><path class="st0" d="m612 1271 33-51 10 7-32 51"/><path d="m635 1235 18-6-15 21-16 5z"/><circle class="st0" cx="655.7" cy="1263.2" r="6.4"/><circle class="st0" cx="578.3" cy="1262.6" r="7.7"/><path class="st1" d="m503 1219-1 51m-17-41 34 34m-34 0 34-34m-41 17h48m-36-11-5 11 5 12 11 5 13-3 6-13-4-15-14-4z"/><path class="st1" d="m514 1222 2 10 7 1-3 14 5 9h-9l-6 12-9-6-8 6-3-11-9-3 4-8-5-12 10 1 1-14 11 7 12-6zm288-731-1 51m-17-41 34 34m-34 0 34-34m-41 17h48m-36-11-5 11 5 12 11 5 13-4 6-12-4-15-14-4z"/><path class="st1" d="m813 494 2 10 7 1-3 14 5 9-9 1-6 11-9-5-8 5-3-10-9-3 4-9-5-11h10l1-14 11 7 12-6z"/><path class="st0" d="M603 1362s11-40 30-7c23 39 36-8 36-8m-112 947s-6-23-24-27-31 18-47 3-15-34-51-11c0 0 25 0 23 22-2 21-20 64 21 73 46 10 34-68 78-60zm-87 59s2 16-8 17-33 4 4 14 34 0 22-7c-16-9-2-20-2-20"/><path class="st0" d="M457 2249c-8-40 53-14 85-32"/><path class="st0" d="M469 2224c2-28 30-24 38-23s15 0 23-1c13-3 14-19 11-22 0 0 21 15 6 32"/><path class="st0" d="M551 2205a20 20 0 0 1-3 33m1 1c5 5 16 25-1 38"/><circle cx="478.6" cy="2291.5" r="4.2"/><circle cx="505.5" cy="2299.2" r="4.2"/><path d="M486 2298s3 11 10 3" style="fill:none;stroke:#000;stroke-width:4;stroke-linecap:round;stroke-miterlimit:10"/><path class="st0" d="m526 2230 2 2h1l3-1 2 1v1l-1 3v1l2 3-1 2s0 0 0 0h-4l-1 1-2 2h-2s0 0 0 0v-1l-1-2-1-2h-3l-1-2 1-1 2-2 1-1v-3l2-2h0l1 1zm-26 14v3l1 1 2 2v2s0 0 0 0h-1l-2 1-1 1-1 3-2 1s0 0 0 0l-1-1-2-2-1-1h-3l-1-1v0-1l2-3v-1l-1-3 1-2h1l3 1h1l3-2 2 1v1h0z"/><circle class="st0" cx="519.1" cy="2253.2" r="3.5"/><path class="st0" d="m847 1580 20-58c2-8 10-11 17-9l55 18c7 3 11 11 8 18l-20 58c-2 8-10 11-17 9l-54-18c-7-3-11-10-9-18z"/><path class="st0" d="M945 1535c8 4 9 16 6 22l-21 61c-2 6-9 10-16 8l-56-20c-6-2-16-12-12-23m27-50 3-8c1-3 4-5 7-4l8 3c3 1 5 5 4 8l-3 7c-1 3-4 5-8 4l-7-3c-3-1-5-4-4-7zm23 7 2-7c1-3 5-5 8-4l8 3c3 1 4 4 3 7l-2 8c-2 3-5 5-8 4l-8-3c-3-1-5-4-3-8z"/><path class="st0" d="m918 1548 3-7c1-4 4-5 7-4l8 2c3 2 5 5 4 8l-3 8c-1 3-4 5-8 3l-7-2c-3-1-5-5-4-8zm-53 9 2-7c1-4 5-5 8-4l8 2c3 2 4 5 3 8l-2 8c-1 3-5 5-8 3l-8-2c-3-1-4-5-3-8zm22 8 3-8c1-3 4-5 7-3l8 2c3 1 5 5 4 8l-3 7c-1 4-4 5-7 4l-8-2c-3-2-5-5-4-8zm23 8 2-8c1-3 5-5 8-4l8 3c3 1 4 4 3 7l-2 8c-1 3-5 5-8 4l-8-3c-3-1-4-4-3-7zm-54 8 3-7c1-4 5-5 8-4l7 2c4 2 5 5 4 8l-3 8c-1 3-4 5-7 3l-8-2c-3-1-5-5-4-8zm23 8 3-8c1-3 4-5 7-3l8 2c3 1 5 5 4 8l-3 7c-1 4-5 5-8 4l-7-2c-3-2-5-5-4-8zm22 8 3-8c1-3 5-5 8-4l7 3c4 1 5 4 4 7l-3 8c-1 3-4 5-7 4l-8-3c-3-1-5-4-4-7zM18 2362l27-51c4-7 12-9 19-5l54 29c7 3 10 11 6 18l-27 51c-3 6-12 9-18 5l-55-29c-7-3-9-12-6-18z"/><path class="st0" d="M49 2306c5-7 16-6 22-3l57 31c6 3 8 10 5 17l-28 52c-3 6-13 13-23 8m-57-46 4-8c1-2 5-3 8-2l7 4c3 1 4 5 3 8l-4 7c-2 3-5 4-8 3l-7-4c-3-2-4-5-3-8zm11-21 4-8c2-2 5-3 8-2l7 4c3 1 4 5 3 8l-4 7c-1 3-5 4-8 3l-7-4c-3-2-4-5-3-8z"/><path class="st0" d="m48 2323 3-7c2-3 5-4 8-3l8 4c2 1 4 5 2 8l-4 7c-1 3-5 4-8 3l-7-4c-3-2-4-5-2-8zm0 54 4-7c1-3 5-4 8-3l7 4c3 2 4 5 3 8l-4 7c-2 3-5 4-8 3l-8-4c-2-2-4-5-2-8zm11-21 4-7c1-3 5-4 8-3l7 4c3 2 4 5 3 8l-4 7c-2 3-5 4-8 3l-7-4c-3-2-4-5-3-8zm11-21 4-7c2-3 5-4 8-3l7 4c3 2 4 5 3 8l-4 7c-1 3-5 4-8 3l-7-4c-3-2-4-5-3-8zm0 54 4-7c2-3 5-4 8-3l7 4c3 1 4 5 3 8l-4 7c-1 3-5 4-8 3l-7-4c-3-2-4-5-3-8zm12-21 3-7c2-3 5-4 8-3l8 4c2 1 4 5 2 8l-4 7c-1 3-5 4-8 3l-7-4c-3-2-4-5-2-8zm11-21 4-7c1-3 5-4 8-3l7 4c3 1 4 5 2 8l-4 7c-1 3-5 4-8 3l-7-4c-3-2-4-5-2-8zM815 406l48-31c6-4 15-3 19 4l33 52c4 6 2 15-4 19l-48 31c-6 4-15 2-19-4l-33-52c-4-7-3-15 4-19z"/><path class="st0" d="M868 372c9-4 18 3 21 9l35 53c4 6 2 14-4 18l-49 32c-6 4-18 5-25-5m-27-67 7-5c3-2 7-1 8 2l5 7c1 3 1 6-2 8l-7 4c-3 2-7 1-8-1l-5-7c-1-3-1-7 2-8zm20-13 7-5c3-2 7-1 8 2l5 7c1 3 1 6-2 8l-7 5c-3 1-7 1-8-2l-5-7c-1-3-1-7 2-8z"/><path class="st0" d="m859 386 7-5c3-1 7-1 8 2l5 7c1 3 1 7-2 8l-7 5c-3 1-7 1-8-2l-5-7c-1-3-1-6 2-8zm-26 47 7-4c3-2 7-1 8 2l5 7c2 2 1 6-2 8l-7 4c-3 2-6 1-8-2l-5-7c-1-2-1-6 2-8zm20-13 7-4c3-2 7-1 8 2l5 7c1 2 1 6-2 8l-7 4c-3 2-7 1-8-2l-5-6c-1-3-1-7 2-9zm20-12 7-5c3-2 7-1 8 2l5 7c1 3 1 6-2 8l-7 4c-3 2-7 1-8-1l-5-7c-1-3-1-7 2-8zm-26 47 7-5c3-2 6-1 8 2l4 7c2 3 1 6-1 8l-7 5c-3 1-7 1-8-2l-5-7c-2-3-1-7 2-8zm20-13 7-5c3-1 6-1 8 2l4 7c2 3 1 7-1 8l-7 5c-3 1-7 1-8-2l-5-7c-2-3-1-6 2-8zm19-11 7-5c2-1 6-1 8 2l4 7c2 3 1 6-2 8l-6 5c-3 1-7 1-9-2l-4-7c-2-3-1-7 2-8zm140 1226s14-7 20 14-7 22-7 22-34 9-41-7 29-30 29-30"/><path class="st0" d="M1020 1658c-7-12 27-24 43-24 28 0 29 34 27 44-5 20-52 28-55 17"/><path class="st0" d="M1046 1634s-6-20 26-26c41-8 44 34 36 54s-20 20-20 20"/><path class="st0" d="M1097 1609c-13-19-31-25-43-20-14 7 4 21 4 21"/><circle class="st0" cx="1081.4" cy="1619.5" r="2.9"/><circle class="st0" cx="1053.9" cy="1651.7" r="2.2"/><circle class="st0" cx="1070.2" cy="1652.8" r="1.8"/><circle class="st0" cx="1064.2" cy="1626.5" r="1.6"/><circle class="st0" cx="1093.6" cy="1634.5" r="2"/><circle class="st0" cx="328.5" cy="2387.7" r="30.4"/><path class="st0" d="M317 2361s-14 24 6 27c27 4 23 21 17 26"/><path class="st0" d="M346 2364s-28 0-21 19c10 26-6 31-14 27"/><path class="st0" d="M357 2391s-13-24-26-8c-18 21-30 9-31 1"/><circle class="st0" cx="1084.6" cy="43.1" r="30.4"/><path class="st0" d="M1073 16s-14 24 6 27c27 4 23 21 17 27"/><path class="st0" d="M1102 20s-27 0-20 19c9 25-7 30-15 27"/><path class="st0" d="M1113 47s-13-24-26-9c-17 21-30 10-31 1"/><path transform="rotate(-73 669 130)" class="st0" d="M661 101h17v58h-17z"/><path class="st0" d="M694 129c-1-14-11-24-25-24-7 0-15 4-19 10l44 14zm-48 2a24 24 0 0 0 42 13l-42-13z"/><path transform="rotate(-73 652 188)" class="st0" d="M615 185h74v6h-74z"/><circle class="st0" cx="1009.9" cy="1806.1" r="25"/><path class="st0" d="M1000 1831s-35 26-25 37 26-11 26-11l8 31s-29 26-12 35 36-28 36-28m-4-72s44 4 40 19-27 4-27 4l8 31s38 8 28 24-45-6-45-6"/><circle class="st0" cx="1020.8" cy="1845.4" r="4.7"/><circle class="st0" cx="1025.9" cy="1864.4" r="4.7"/><path class="st0" d="M1009 1882s4 9 8 2 8 6 13-1 9 2 11-3c3-8 8-3 8-3m-46-61s9 5 18-5"/><circle cx="997.8" cy="1804.7" r="4"/><circle cx="1018.8" cy="1799" r="4"/><circle cx="234.7" cy="1891.1" r="6.2"/><circle cx="272" cy="1880.6" r="6.2"/><ellipse transform="rotate(-10 258 1900)" class="st2" cx="257.8" cy="1899.8" rx="5.3" ry="6.3"/><path class="st0" d="m836 268-12-25c-2-5 0-9 4-12 8-4 20-14 16-22-3-8-19-2-30 3a23 23 0 1 0-34 5c-12-1-28-1-29 7-1 10 14 14 23 16 5 1 8 5 7 10l-3 27s-12 7-13 14 29 14 31 3c9-37 15-34 28-4 5 10 31-7 28-14s-16-8-16-8z"/><circle cx="785.3" cy="196.3" r="3.4"/><circle cx="803.6" cy="192.3" r="3.4"/><path class="st0" d="M791 201s6 5 10-1"/><circle class="st0" cx="799.3" cy="224.6" r="3.2"/><circle class="st0" cx="802.7" cy="237.4" r="3.2"/><circle class="st0" cx="805.7" cy="251.7" r="3.2"/><path class="st0" d="M775 218s4 5-3 7-2 7 1 9-3 5-3 5m54-31s6 3 1 8 1 4 4 5 1 9 1 9m-60 53s9-3 7 6 5 4 10 1 8 4 8 4m29-8s1-6 9-2 8-3 7-7c-2-5 9-4 9-4m193 1122-11 31c-2 6-7 8-13 7-11-3-30-5-33 5-4 10 15 19 29 24a28 28 0 1 0 34 24c9 12 23 26 31 19 9-7 0-24-6-34-3-5-3-11 1-14l27-21s16 4 23-1-13-37-24-30c-39 26-43 17-28-20 5-13-34-20-36-12s6 22 6 22z"/><path d="M1025 1496c3 0 4 2 4 4 1 2-1 4-4 4s-4-2-4-4 2-4 4-4z"/><circle cx="1006" cy="1487.8" r="4.2"/><path class="st0" d="M1025 1491s-2-9-11-8"/><circle class="st0" cx="1037.4" cy="1463.3" r="3.9"/><circle class="st0" cx="1045.4" cy="1449.2" r="3.9"/><circle class="st0" cx="1055" cy="1434.2" r="3.9"/><path class="st0" d="M1052 1490s1-8 9-4 8-4 8-9 6-2 6-2m-74-18s-2-8 6-8 4-4 1-9 8-8 8-8m97 5s-10-5-1-11-1-8-8-9-4-11-4-11m-31-17s-6 4-10-6-10-4-12-1c-2 7-12-3-12-3"/><ellipse class="st1" cx="1053.8" cy="324.2" rx="4.6" ry="9.1"/><ellipse class="st1" cx="1053.8" cy="359.9" rx="4.6" ry="9.1"/><ellipse transform="rotate(-45 1067 329)" class="st1" cx="1066.7" cy="329.4" rx="9.1" ry="4.6"/><ellipse transform="rotate(-45 1041 355)" class="st1" cx="1041.4" cy="354.7" rx="9.1" ry="4.6"/><ellipse class="st1" cx="1072.1" cy="342.2" rx="9.1" ry="4.6"/><ellipse class="st1" cx="1036.4" cy="342.2" rx="9.1" ry="4.6"/><ellipse transform="rotate(-45 1067 355)" class="st1" cx="1066.9" cy="355" rx="4.6" ry="9.1"/><path class="st1" d="M1079 368s-10 0-17-7c-1 10-8 17-8 17s-7-7-8-17c-7 6-17 6-17 6s0-10 6-17c-9 0-17-8-17-8s8-7 17-7c-6-7-6-18-6-18s10 0 17 6c1-9 8-16 8-16s7 7 8 16c7-6 17-6 17-6s0 11-6 18c9 0 16 7 16 7s-7 8-16 8c6 7 6 18 6 18zm-25-25h0v-1h0v0h0v0h0v1h0z"/><ellipse transform="rotate(-45 1042 330)" class="st1" cx="1041.6" cy="329.8" rx="4.6" ry="9.1"/><path d="M1108 1753c-3 0-6-4-6-10s3-11 6-11 7 5 7 11-3 10-7 10zm0-18c-1 0-3 3-3 8s2 7 3 7 4-3 4-7-2-8-4-8zm0 54c-3 0-6-5-6-11s3-10 6-10 7 4 7 10-3 11-7 11zm0-18c-1 0-3 3-3 7s2 8 3 8 4-3 4-8-2-7-4-7z"/><path d="m1125 1748-2 2c-3 3-6 4-7 3s0-4 3-7l6-4v-3c-2 0-5 2-8 5-4 4-6 9-3 11l3 2 8-4v-5zm-33 34-3-1c-3-3-2-8 3-12s9-6 12-3 1 7-4 11c-3 3-6 5-8 5zm8-15-6 4c-4 3-4 7-3 7s4 1 7-3 4-6 3-7l-1-1z"/><path d="m1125 1764-6-3c0-1 2-3 6-3v-3c-5 0-9 2-9 6s4 5 9 6v-3zm-34 3c-6 0-11-3-11-6s5-6 11-6 11 2 11 6-5 6-11 6zm0-9c-5 0-8 1-8 3s3 3 8 3 8-2 8-3-3-3-8-3z"/><path d="m1125 1779-6-3c-3-4-4-7-3-8h1l7 3 1 2v-4c-4-4-9-5-11-3s-1 8 3 12c3 3 6 4 8 4v-3z"/><path d="m1125 1783-8-4h-1l-1 1c-1 6-5 12-7 14-2-2-6-8-6-14l-1-2-1 1c-5 4-12 5-15 5 0-3 1-9 5-14v-2l-1-1c-6 0-12-4-14-6 2-2 8-6 14-7l2-1-1-1c-4-5-5-12-5-15 3 1 10 2 15 6h2v-1c0-7 4-12 6-14 3 2 7 7 7 14l2 1 8-4v-4l-7 4c-2-8-8-15-8-15h-2c-1 0-7 7-8 15-7-5-16-5-17-5l-1 2s0 9 5 16c-9 1-15 7-15 8v2s6 6 15 8c-5 7-5 16-5 16l1 1c1 0 9 0 17-4 1 8 7 14 8 14h2s6-6 8-14l7 3v-3z"/><path d="M1109 1759h-1l-1 1v2h1v1h1v-1l1-1v-2h-1zm-9-2-8-4-4-7c-1-2-1-4 1-5 1-2 3-2 5-1l7 4c4 4 5 9 3 12l-4 1zm-8-14h-1v2l3 5c3 4 7 4 8 3s0-4-4-7l-5-3h-1zm-2-1zm36-1258c-4-7-6-14-5-21 0-7 2-12 5-16v-5c-5 5-8 12-8 21-1 10 2 19 8 26v-5z"/><path d="m1126 499-2-1c-10-9-14-20-14-34 1-13 5-23 13-29l3-2v-5l-5 4c-10 7-14 17-15 31 0 16 5 28 16 38l4 3v-5zm-1 187c-9-10-11-25-5-37l5-9v-9l-9 16c-7 15-4 34 9 45v-6z"/><path d="m1125 716-10 20c-2 3-5 5-6 4l-2-1-1-1 1-6 18-34v-8l-1 1-21 39-1 9 3 4h2l3 1c3 0 6-2 8-6l7-13v-9zm0 322c-2-7-2-12 0-16v-6l-3 3c-4 6-4 15 2 25l1 3v-9z"/><path d="M1125 1060c-3-1-5-3-4-7 1-8-1-10-4-12l-3-4c-2-6 9-13 9-13l1-3-3-1c-1 1-13 9-10 19 0 2 2 4 4 5 1 1 2 2 2 9-1 7 4 10 8 11v-4z"/><path d="M1125 1075c-12-12-14-21-14-26 0-3 1-5 3-7l1-3h-3c-3 2-5 6-5 10-1 9 5 20 18 32v-6zM19 2154c1-2 1-6-2-7-1-1-2-2-4-1l-13 1v4l14-1c1-1 2 0 2 1v1l-8 12v6l6 13v1l-1 1h-1l-12-3v4l11 3c3 1 6-1 7-4v-4l-6-13v-1l7-13zM4 1740l-4-1v3h2c1 1 0 4-2 7v4l1-1c4-4 6-9 3-12zm-2 15H0v3l2-1c5 1 8 2 8 4s-3 3-8 3H0v3h2c6 0 11-3 11-6s-5-6-11-6zm3 20-4-6-1-1v4l2 4v3H0v3h1l3-1c2-1 2-3 1-6z"/><path d="M21 1760c-1-1-7-7-15-8 4-7 4-16 4-16 1-1 0-2-1-2l-9 2v3l7-2c0 3-1 10-5 15v2h1c6 1 12 5 14 7-2 2-8 6-14 6l-2 2 1 1c4 4 5 11 5 14l-7-1v3l9 1 2-1s0-9-5-16c8-2 14-8 15-8v-2z"/><circle class="st0" cx="815.1" cy="2415.9" r="7.9"/><path d="M28 903c-6-11-14-17-24-19l-4-1v4l4 1c8 1 15 7 20 17 4 6 4 13 2 19-4 10-14 19-26 26v5c15-9 25-19 29-29 4-7 3-16-1-23zM0 1422v15-1c3-2 3-8 0-14z"/><path class="st8" d="m1051 2085-10-60-6 3c-12 2-22-5-27-14-10 7-22 0-28-10l-22 4c-4 1-8 5-7 10l15 88m3 25 3 18c1 4 6 8 11 7l71-12c5-1 8-5 8-10l-5-20"/><path class="st8" d="m977 2038-12 2c-1 0-3-1-3-3l-3-18c-1-2 0-4 2-4l12-2c2 0 3 1 4 3l3 18c0 2-1 3-3 4zm9-27c-1 1-2 2-1 4l3 17c0 2 2 4 4 3l11-2c2 0 3-2 3-4l-3-13c-5 2-12-1-17-5zm25 8 2 9c0 2 2 3 4 3l11-2 2-1c-8 0-14-4-19-9zm-28 51-12 2-4-2-3-19c0-2 1-3 3-3l12-2c1-1 3 0 3 2l3 19-2 3zm26-4-12 2c-2 0-4-1-4-3l-3-18c0-2 1-4 3-4l12-2c1 0 3 1 3 3l3 18-2 4zm25-4-12 2c-2 0-4-1-4-3l-3-18 2-4 12-2c2 0 4 1 4 3l3 18-2 4zm-46 40-12 2-4-2-3-19c0-2 1-3 3-3l12-2c1-1 3 0 3 2l3 19c1 1 0 3-2 3zm26-4-12 2c-2 0-3-1-4-3l-3-18c0-2 1-4 3-4l12-2c1 0 3 1 3 3l3 18c1 2 0 3-2 4zm25-4-12 2c-2 0-3-1-4-3l-3-18c0-2 1-4 3-4l12-2c1 0 3 1 3 3l3 18c1 2-1 3-2 4z"/><path class="st8" d="m968 2130-23-17 11-9 30 8 54-12 23-29 5 24-12 21-88 14z"/></g></svg>